<?xml version="1.0" encoding="UTF-8"?>
<svg xmlns="http://www.w3.org/2000/svg" xmlns:xlink="http://www.w3.org/1999/xlink" width="375pt" height="374.999991pt" viewBox="0 0 375 374.999991" version="1.2">
<g id="surface1">
<path style=" stroke:none;fill-rule:nonzero;fill:rgb(85.099792%,85.099792%,85.099792%);fill-opacity:1;" d="M 329.171875 272.296875 C 326.488281 251.535156 314.734375 234.085938 297.054688 222.953125 C 278.285156 211.144531 255.503906 202.867188 233.101562 203.457031 C 211.464844 204.039062 192.59375 214.171875 178.6875 230.558594 C 165.378906 246.269531 156.019531 267.699219 163.839844 288.070312 C 164.101562 288.671875 164.222656 289.304688 164.199219 289.960938 C 164.179688 290.621094 164.015625 291.242188 163.714844 291.828125 C 164.46875 295.875 165.558594 299.832031 166.976562 303.695312 C 170.921875 314.1875 176.285156 323.898438 183.066406 332.824219 C 186.3125 324.449219 195.152344 321.777344 203.402344 321.214844 C 207.996094 320.894531 212.597656 320.957031 217.183594 320.636719 C 220.839844 320.378906 225.273438 320.179688 228.367188 317.957031 C 237.117188 311.707031 232.496094 299.4375 229.3125 291.515625 C 225.378906 281.691406 220.757812 271.449219 222.769531 260.644531 C 225.828125 244.242188 241.308594 232.917969 257.800781 233.585938 C 275.417969 234.292969 289.832031 250.742188 287.511719 268.546875 C 286.464844 276.585938 282.074219 283.265625 278 290.042969 C 274.238281 296.292969 268.847656 305.402344 272.164062 312.921875 C 273.511719 316.011719 277.757812 315.9375 280.609375 316.492188 C 285.238281 317.1875 289.464844 318.886719 293.285156 321.589844 C 300.722656 327.117188 304.734375 335.253906 307.378906 343.84375 C 323.675781 323.894531 332.425781 297.132812 329.171875 272.296875 Z M 329.171875 272.296875 "/>
<path style=" stroke:none;fill-rule:nonzero;fill:rgb(32.939148%,32.939148%,32.939148%);fill-opacity:1;" d="M 127.570312 181.597656 C 128.953125 177.335938 125.441406 174.550781 122.046875 172.417969 C 117.046875 169.292969 111.660156 166.917969 106.367188 164.378906 C 100.109375 161.34375 93.101562 157.621094 89.457031 151.34375 C 84.378906 142.644531 86.246094 133.25 89.8125 124.339844 C 93.378906 115.425781 97.742188 107.371094 98.949219 97.816406 C 100.011719 89.386719 99.394531 80.296875 96.007812 72.410156 C 92.621094 64.527344 86.265625 58.917969 77.515625 57.792969 C 70.265625 56.898438 63.839844 60.238281 60.101562 66.5 C 58.140625 69.878906 56.628906 73.453125 55.570312 77.214844 C 54.511719 80.976562 53.9375 84.808594 53.847656 88.71875 C 53.535156 99.433594 57.199219 109.613281 59.261719 120.0625 C 59.492188 120.632812 59.605469 121.230469 59.601562 121.847656 C 59.707031 122.421875 59.707031 122.996094 59.601562 123.570312 C 59.699219 131.875 59.96875 140.027344 55.507812 147.449219 C 52.355469 152.691406 47.785156 155.976562 42.34375 158.523438 C 33.921875 162.453125 20.757812 165.050781 22.054688 176.765625 C 22.121094 177.246094 22.121094 177.726562 22.054688 178.203125 C 23.304688 179.097656 24.574219 179.988281 25.878906 180.765625 C 55.902344 199.519531 97.679688 204.289062 129.203125 186.277344 C 128.8125 186.046875 128.46875 185.757812 128.179688 185.40625 C 127.890625 185.058594 127.671875 184.667969 127.523438 184.238281 C 127.371094 183.808594 127.300781 183.367188 127.308594 182.914062 C 127.316406 182.460938 127.402344 182.019531 127.570312 181.597656 Z M 127.570312 181.597656 "/>
<path style=" stroke:none;fill-rule:nonzero;fill:rgb(85.099792%,85.099792%,85.099792%);fill-opacity:1;" d="M 166.726562 113.800781 C 164.859375 84.003906 149.414062 55.460938 124.503906 38.664062 C 89.714844 15.1875 39.902344 17.554688 7.796875 44.628906 C -6.164062 67.242188 -10.078125 96.128906 -7.398438 122.175781 C -6.183594 133.929688 -3.875 146.519531 2.210938 156.84375 C 5.113281 161.734375 8.570312 166.199219 12.578125 170.238281 C 14.6875 161.308594 22.882812 156.128906 31.921875 152.378906 C 36.078125 150.636719 41.574219 149.058594 44.667969 145.574219 C 50.609375 138.902344 49.789062 130.984375 49.734375 122.660156 C 48.207031 114.035156 44.945312 105.578125 44.175781 96.824219 C 43.71875 91.679688 43.886719 86.554688 44.675781 81.449219 C 46.265625 71.339844 50.039062 60.964844 57.96875 54.078125 C 71.265625 42.46875 93.09375 48.167969 101.917969 62.589844 C 111.183594 77.769531 111.246094 97.996094 104.792969 114.222656 C 101.550781 122.355469 94.898438 132.1875 96.089844 141.324219 C 96.980469 148.53125 104.035156 152.332031 109.933594 155.191406 C 119.558594 159.84375 139.3125 167.023438 137.875 180.480469 C 158.121094 164.738281 168.363281 139.796875 166.726562 113.800781 Z M 166.726562 113.800781 "/>
<path style=" stroke:none;fill-rule:nonzero;fill:rgb(32.939148%,32.939148%,32.939148%);fill-opacity:1;" d="M 297.582031 345.363281 C 295.117188 337.710938 291.164062 329.871094 283.371094 327.171875 C 276.953125 324.957031 268.121094 325.914062 264.269531 318.992188 C 255.386719 303.007812 268.890625 288.703125 275.308594 275.011719 C 278.992188 267.171875 278.457031 259.109375 273.386719 251.875 C 272.359375 250.417969 271.160156 249.117188 269.789062 247.972656 C 268.417969 246.832031 266.921875 245.886719 265.300781 245.140625 C 263.679688 244.394531 261.988281 243.875 260.226562 243.574219 C 258.46875 243.277344 256.699219 243.214844 254.921875 243.382812 C 247.609375 243.980469 240.511719 247.367188 236.152344 253.394531 C 230.914062 260.625 231.503906 269.316406 234.363281 277.363281 C 237.457031 286.148438 242.40625 294.890625 243.140625 304.339844 C 243.800781 312.992188 240.460938 322.492188 232.484375 326.894531 C 225.433594 330.808594 216.851562 330.46875 209.042969 330.734375 C 202.890625 330.957031 194.320312 330.582031 191.789062 337.414062 C 191.585938 338.078125 191.230469 338.648438 190.730469 339.125 C 190.226562 339.601562 189.636719 339.925781 188.964844 340.09375 C 195.609375 347.757812 203.03125 354.566406 211.238281 360.527344 C 227.953125 372.636719 249.074219 377.492188 269 370.9375 C 274.59375 369.046875 279.921875 366.574219 284.972656 363.519531 C 290.027344 360.464844 294.6875 356.898438 298.960938 352.820312 C 296.269531 351.203125 296.039062 347.585938 297.582031 345.363281 Z M 297.582031 345.363281 "/>
<path style=" stroke:none;fill-rule:nonzero;fill:rgb(32.939148%,32.939148%,32.939148%);fill-opacity:1;" d="M 339.40625 133.382812 C 340.53125 126.992188 337.734375 122.257812 333.105469 118.0625 C 327.875 113.328125 321 109.132812 317.648438 102.691406 C 312.519531 92.871094 317.050781 84.894531 322.859375 76.554688 C 326.375 71.527344 328.519531 65.839844 326.828125 59.585938 C 325.597656 55.042969 323.460938 50.425781 319.839844 47.265625 C 314.566406 42.640625 307.210938 40.886719 300.695312 44.015625 C 293.542969 47.460938 290.148438 56.230469 291.675781 63.765625 C 293.320312 71.804688 298.878906 78.609375 300.066406 86.832031 C 301.445312 96.335938 295.75 104.253906 288.207031 109.460938 C 281.433594 114.132812 271.519531 117.925781 270.007812 126.9375 C 273.054688 129.066406 276.234375 130.964844 279.554688 132.636719 C 282.871094 134.308594 286.292969 135.734375 289.816406 136.914062 C 293.339844 138.09375 296.929688 139.011719 300.585938 139.675781 C 304.246094 140.339844 307.929688 140.734375 311.644531 140.867188 C 316.433594 141.070312 321.195312 140.785156 325.925781 140.007812 C 330.65625 139.234375 335.261719 137.988281 339.734375 136.269531 C 339.320312 135.34375 339.207031 134.382812 339.40625 133.382812 Z M 339.40625 133.382812 "/>
<path style=" stroke:none;fill-rule:nonzero;fill:rgb(85.099792%,85.099792%,85.099792%);fill-opacity:1;" d="M 361.089844 35.726562 C 347.949219 19.011719 325.105469 9.347656 303.949219 9.875 C 293.632812 10.125 282.871094 12.757812 275.066406 19.914062 C 268.789062 25.75 263.273438 32.230469 258.515625 39.363281 C 249.914062 52.007812 237.769531 73.296875 246.402344 88.707031 C 246.714844 89.257812 246.921875 89.847656 247.015625 90.472656 C 247.109375 91.101562 247.085938 91.722656 246.949219 92.339844 C 246.8125 92.957031 246.566406 93.53125 246.214844 94.058594 C 245.863281 94.585938 245.429688 95.03125 244.910156 95.398438 C 245.042969 95.753906 245.167969 96.109375 245.3125 96.46875 C 247.136719 100.984375 249.433594 105.25 252.203125 109.261719 C 254.972656 113.269531 258.144531 116.929688 261.722656 120.238281 C 264.296875 114.105469 269.578125 109.683594 275.34375 106.03125 C 280.707031 102.648438 290.773438 97.84375 290.488281 90.21875 C 290.183594 82.179688 284.410156 75.457031 282.566406 67.792969 C 280.421875 58.863281 281.734375 49.390625 287.707031 42.148438 C 298.574219 28.984375 318.5625 30.136719 329.207031 42.941406 C 336.1875 51.335938 339.808594 64.492188 335.214844 74.894531 C 332.148438 81.832031 321.011719 90.59375 326.613281 98.558594 C 330.71875 104.40625 337.339844 107.898438 342.078125 113.148438 C 346.816406 118.398438 349.585938 124.367188 349.441406 131.207031 C 349.648438 131.0625 349.855469 130.9375 350.058594 130.804688 C 362.394531 122.375 370.457031 109.257812 373.496094 94.710938 C 377.734375 74.394531 374.113281 52.292969 361.089844 35.726562 Z M 361.089844 35.726562 "/>
<path style=" stroke:none;fill-rule:nonzero;fill:rgb(0%,0%,0%);fill-opacity:1;" d="M 362.699219 22.789062 C 347.65625 7.492188 324.316406 -0.0195312 303.1875 0.078125 C 297.730469 0.0820312 292.394531 0.878906 287.179688 2.472656 C 281.960938 4.066406 277.089844 6.386719 272.566406 9.429688 C 265.738281 14.070312 260.125 20.867188 255.125 27.34375 C 244.347656 41.289062 232.148438 61.828125 234.03125 80.699219 C 233.640625 80.902344 233.292969 81.167969 232.988281 81.492188 C 232.683594 81.816406 232.445312 82.179688 232.265625 82.585938 C 232.085938 82.992188 231.976562 83.414062 231.941406 83.855469 C 231.90625 84.300781 231.945312 84.734375 232.058594 85.164062 C 232.398438 87.019531 232.796875 88.84375 233.253906 90.636719 C 224.316406 89.90625 215.054688 92.78125 206.59375 95.210938 C 196.335938 98.164062 186.253906 101.621094 176.34375 105.585938 C 176.167969 105.652344 175.996094 105.730469 175.828125 105.816406 C 174.324219 94.207031 171.050781 83.113281 166.003906 72.546875 C 164.5625 69.523438 162.980469 66.578125 161.257812 63.710938 C 159.535156 60.839844 157.679688 58.058594 155.691406 55.367188 C 153.703125 52.671875 151.589844 50.082031 149.355469 47.589844 C 147.121094 45.097656 144.769531 42.714844 142.308594 40.449219 C 139.847656 38.179688 137.28125 36.03125 134.613281 34.007812 C 131.945312 31.984375 129.191406 30.089844 126.34375 28.328125 C 123.496094 26.566406 120.570312 24.945312 117.566406 23.460938 C 114.566406 21.976562 111.5 20.640625 108.371094 19.449219 C 73.679688 6.230469 30.867188 12.394531 2.328125 36.414062 C 1.824219 36.835938 1.410156 37.332031 1.09375 37.90625 C 0.355469 38.335938 -0.242188 38.914062 -0.695312 39.636719 C -12.054688 57.785156 -16.550781 79.484375 -17.675781 100.601562 C -18.769531 120.640625 -16.34375 142.359375 -6.953125 160.363281 C 10.640625 194.109375 54.777344 208.761719 90.644531 207.117188 C 97.15625 206.828125 103.570312 205.890625 109.890625 204.304688 C 116.210938 202.71875 122.308594 200.515625 128.1875 197.699219 C 128.011719 197.917969 127.863281 198.15625 127.742188 198.410156 C 127.617188 198.660156 127.523438 198.921875 127.457031 199.195312 C 127.386719 199.46875 127.347656 199.746094 127.339844 200.027344 C 127.328125 200.308594 127.347656 200.585938 127.398438 200.863281 C 127.445312 201.136719 127.523438 201.40625 127.628906 201.667969 C 127.734375 201.925781 127.867188 202.175781 128.023438 202.40625 C 128.179688 202.640625 128.359375 202.855469 128.5625 203.050781 C 128.765625 203.242188 128.984375 203.417969 129.222656 203.566406 C 137.027344 209.136719 144.820312 214.699219 152.335938 220.648438 C 155.277344 222.96875 158.21875 225.273438 160.972656 227.792969 C 162.351562 229.167969 163.859375 230.386719 165.492188 231.445312 C 154.214844 247.519531 147.839844 267.539062 153.113281 286.558594 C 155.742188 310.769531 168.808594 332.199219 184.980469 349.882812 C 199.871094 366.179688 218.585938 379.957031 240.941406 383.027344 C 283.84375 388.921875 320.257812 354.125 333.578125 316.179688 C 340.324219 296.953125 341.898438 275.996094 335.769531 256.347656 C 329.394531 235.972656 314.171875 221.128906 296.027344 210.746094 C 295.5625 210.476562 295.082031 210.21875 294.617188 209.957031 C 300.59375 190.4375 311.195312 171.820312 312.921875 151.207031 C 312.933594 151 312.933594 150.792969 312.921875 150.582031 C 333.683594 150.957031 354.441406 143.601562 368.339844 127.480469 C 393.695312 98.101562 389.273438 49.828125 362.699219 22.789062 Z M 25.78125 180.847656 C 24.476562 180.035156 23.207031 179.175781 21.953125 178.285156 C 22.023438 177.804688 22.023438 177.324219 21.953125 176.847656 C 20.660156 165.128906 33.824219 162.558594 42.246094 158.601562 C 47.6875 156.058594 52.253906 152.773438 55.410156 147.53125 C 59.878906 140.109375 59.601562 131.957031 59.503906 123.652344 C 59.609375 123.078125 59.609375 122.503906 59.503906 121.925781 C 59.507812 121.308594 59.394531 120.714844 59.164062 120.140625 C 57.101562 109.695312 53.433594 99.558594 53.75 88.796875 C 53.839844 84.890625 54.414062 81.054688 55.472656 77.292969 C 56.53125 73.53125 58.042969 69.960938 60.003906 66.578125 C 63.742188 60.328125 70.167969 56.945312 77.417969 57.875 C 86.203125 59 92.503906 64.492188 95.9375 72.472656 C 99.367188 80.457031 99.941406 89.441406 98.878906 97.878906 C 97.671875 107.40625 93.265625 115.605469 89.742188 124.402344 C 86.222656 133.195312 84.308594 142.707031 89.386719 151.40625 C 93.03125 157.65625 100.011719 161.40625 106.296875 164.441406 C 111.585938 166.996094 116.976562 169.371094 121.972656 172.480469 C 125.371094 174.613281 128.882812 177.398438 127.496094 181.660156 C 127.324219 182.082031 127.226562 182.519531 127.210938 182.972656 C 127.195312 183.425781 127.257812 183.871094 127.398438 184.304688 C 127.539062 184.734375 127.753906 185.128906 128.035156 185.484375 C 128.320312 185.84375 128.65625 186.136719 129.042969 186.375 C 97.582031 204.324219 55.804688 199.574219 25.78125 180.800781 Z M 109.925781 155.21875 C 104.027344 152.359375 97.019531 148.554688 96.078125 141.351562 C 94.890625 132.214844 101.539062 122.382812 104.785156 114.246094 C 111.238281 98.023438 111.175781 77.761719 101.90625 62.613281 C 93.085938 48.191406 71.257812 42.488281 57.957031 54.105469 C 50.074219 60.9375 46.230469 71.320312 44.667969 81.476562 C 43.875 86.582031 43.710938 91.707031 44.167969 96.851562 C 44.933594 105.605469 48.199219 114.058594 49.726562 122.6875 C 49.78125 131.007812 50.621094 138.929688 44.65625 145.601562 C 41.566406 149.082031 36.066406 150.664062 31.910156 152.40625 C 22.875 156.183594 14.679688 161.335938 12.570312 170.265625 C 8.558594 166.226562 5.105469 161.761719 2.203125 156.871094 C -3.886719 146.546875 -6.191406 133.957031 -7.40625 122.203125 C -10.089844 96.15625 -6.164062 67.269531 7.742188 44.683594 C 39.867188 17.609375 89.679688 15.214844 124.46875 38.71875 C 149.378906 55.515625 164.824219 84.054688 166.691406 113.855469 C 168.328125 139.851562 158.085938 164.753906 137.832031 180.515625 C 139.304688 167.003906 119.523438 159.824219 109.925781 155.171875 Z M 268.972656 370.957031 C 249.046875 377.476562 227.925781 372.652344 211.214844 360.542969 C 203.003906 354.585938 195.582031 347.773438 188.9375 340.113281 C 189.613281 339.941406 190.199219 339.617188 190.703125 339.140625 C 191.203125 338.664062 191.558594 338.09375 191.761719 337.433594 C 194.292969 330.601562 202.863281 330.976562 209.015625 330.753906 C 216.828125 330.476562 225.40625 330.824219 232.460938 326.914062 C 240.414062 322.511719 243.773438 313.011719 243.113281 304.355469 C 242.390625 294.910156 237.429688 286.167969 234.335938 277.378906 C 231.503906 269.34375 230.914062 260.644531 236.125 253.410156 C 240.484375 247.382812 247.582031 244 254.894531 243.402344 C 256.671875 243.230469 258.441406 243.296875 260.199219 243.59375 C 261.960938 243.890625 263.652344 244.414062 265.273438 245.160156 C 266.894531 245.90625 268.390625 246.851562 269.761719 247.992188 C 271.136719 249.132812 272.335938 250.433594 273.359375 251.894531 C 278.429688 259.125 278.964844 267.191406 275.28125 275.03125 C 268.890625 288.703125 255.386719 303.007812 264.269531 319.011719 C 268.121094 325.929688 276.953125 324.976562 283.371094 327.191406 C 291.164062 329.871094 295.117188 337.726562 297.582031 345.378906 C 296.035156 347.570312 296.269531 351.222656 298.933594 352.855469 C 294.660156 356.929688 290 360.492188 284.945312 363.546875 C 279.890625 366.597656 274.566406 369.070312 268.972656 370.957031 Z M 297.054688 222.953125 C 314.734375 234.085938 326.453125 251.527344 329.171875 272.296875 C 332.425781 297.132812 323.675781 323.894531 307.363281 343.800781 C 304.679688 335.210938 300.703125 327.074219 293.265625 321.546875 C 289.445312 318.84375 285.222656 317.140625 280.59375 316.449219 C 277.742188 315.921875 273.496094 315.992188 272.144531 312.875 C 268.828125 305.355469 274.21875 296.238281 277.980469 289.996094 C 282.058594 283.21875 286.445312 276.523438 287.492188 268.503906 C 289.816406 250.695312 275.398438 234.246094 257.78125 233.542969 C 241.289062 232.871094 225.808594 244.195312 222.753906 260.601562 C 220.742188 271.40625 225.363281 281.675781 229.296875 291.472656 C 232.476562 299.390625 237.097656 311.625 228.347656 317.914062 C 225.253906 320.128906 220.820312 320.324219 217.167969 320.589844 C 212.582031 320.914062 207.976562 320.851562 203.382812 321.171875 C 195.132812 321.761719 186.292969 324.429688 183.046875 332.78125 C 176.269531 323.851562 170.90625 314.140625 166.960938 303.652344 C 165.539062 299.785156 164.453125 295.832031 163.699219 291.785156 C 164 291.199219 164.160156 290.574219 164.183594 289.917969 C 164.203125 289.257812 164.085938 288.628906 163.824219 288.023438 C 156 267.65625 165.359375 246.222656 178.667969 230.515625 C 192.578125 214.09375 211.445312 203.992188 233.085938 203.414062 C 255.503906 202.867188 278.3125 211.144531 297.054688 222.953125 Z M 286.667969 202.753906 C 285.75 203.3125 285.09375 204.097656 284.703125 205.101562 C 267.917969 197.484375 249.316406 193.214844 231.011719 193.699219 C 209.558594 194.269531 190.59375 204.339844 175.664062 219.316406 C 174.332031 220.65625 173.039062 222.050781 171.777344 223.480469 C 171.484375 223.382812 171.1875 223.308594 170.882812 223.253906 C 169.097656 222.976562 166.800781 219.953125 165.46875 218.738281 C 162.5625 216.058594 159.300781 213.746094 156.207031 211.324219 C 149.503906 206.101562 142.566406 201.191406 135.648438 196.261719 C 134.835938 195.664062 133.921875 195.335938 132.914062 195.277344 C 148.027344 186.894531 160.621094 174.320312 168.292969 158.246094 C 171.417969 151.496094 173.683594 144.46875 175.097656 137.164062 C 176.511719 129.863281 177.027344 122.496094 176.648438 115.070312 C 177.664062 115.335938 178.652344 115.261719 179.617188 114.847656 C 188.394531 111.351562 197.304688 108.234375 206.351562 105.496094 C 214.117188 103.113281 223.761719 99.460938 232.019531 100.300781 C 232.742188 100.386719 233.445312 100.320312 234.136719 100.09375 C 234.828125 99.871094 235.4375 99.515625 235.972656 99.023438 C 245.082031 122.5625 265.421875 139.707031 290.128906 147.15625 C 294.398438 148.4375 298.742188 149.375 303.160156 149.96875 C 301.460938 168.40625 292.703125 185.347656 286.667969 202.753906 Z M 311.625 140.867188 C 307.910156 140.734375 304.226562 140.339844 300.570312 139.675781 C 296.914062 139.011719 293.324219 138.09375 289.800781 136.914062 C 286.273438 135.734375 282.855469 134.308594 279.535156 132.636719 C 276.21875 130.964844 273.035156 129.066406 269.992188 126.9375 C 271.5 117.925781 281.414062 114.132812 288.1875 109.460938 C 295.734375 104.253906 301.425781 96.335938 300.050781 86.832031 C 298.863281 78.609375 293.300781 71.847656 291.65625 63.765625 C 290.128906 56.230469 293.507812 47.460938 300.675781 44.015625 C 307.191406 40.886719 314.546875 42.640625 319.820312 47.265625 C 323.441406 50.425781 325.578125 55.042969 326.8125 59.585938 C 328.5 65.839844 326.355469 71.527344 322.84375 76.554688 C 317.03125 84.894531 312.5 92.871094 317.632812 102.691406 C 320.984375 109.113281 327.855469 113.328125 333.085938 118.0625 C 337.714844 122.257812 340.515625 126.992188 339.386719 133.382812 C 339.191406 134.382812 339.300781 135.34375 339.71875 136.269531 C 335.242188 137.988281 330.640625 139.234375 325.90625 140.007812 C 321.175781 140.785156 316.414062 141.070312 311.625 140.867188 Z M 350.058594 130.804688 C 349.855469 130.9375 349.648438 131.0625 349.441406 131.207031 C 349.585938 124.367188 346.90625 118.488281 342.078125 113.148438 C 337.25 107.808594 330.71875 104.40625 326.613281 98.558594 C 321.011719 90.59375 332.148438 81.832031 335.214844 74.894531 C 339.808594 64.492188 336.1875 51.335938 329.207031 42.941406 C 318.5625 30.136719 298.574219 28.984375 287.707031 42.148438 C 281.734375 49.390625 280.421875 58.898438 282.566406 67.792969 C 284.410156 75.457031 290.183594 82.214844 290.488281 90.21875 C 290.773438 97.84375 280.71875 102.648438 275.34375 106.03125 C 269.578125 109.683594 264.296875 114.070312 261.722656 120.238281 C 258.144531 116.929688 254.972656 113.269531 252.203125 109.261719 C 249.433594 105.25 247.136719 100.984375 245.3125 96.46875 C 245.167969 96.109375 245.042969 95.753906 244.910156 95.398438 C 245.433594 95.035156 245.871094 94.589844 246.226562 94.066406 C 246.582031 93.539062 246.832031 92.96875 246.972656 92.351562 C 247.117188 91.730469 247.140625 91.109375 247.050781 90.480469 C 246.960938 89.851562 246.757812 89.261719 246.449219 88.707031 C 237.8125 73.339844 249.960938 52.007812 258.558594 39.363281 C 263.296875 32.234375 268.792969 25.753906 275.050781 19.914062 C 282.851562 12.769531 293.613281 10.089844 303.929688 9.875 C 325.121094 9.347656 347.933594 19.011719 361.070312 35.773438 C 374.09375 52.335938 377.714844 74.4375 373.476562 94.753906 C 370.457031 109.257812 362.394531 122.375 350.058594 130.804688 Z M 350.058594 130.804688 "/>
</g>
</svg>
